<svg id="5a8172f7-bc95-46f4-8dc0-4ac56fc751f8" data-name="Слой 1" xmlns="http://www.w3.org/2000/svg" width="112.9mm" height="12mm" viewBox="0 0 320.1 34"><title>icon</title><path d="M165.6,14.9c0-3.8,0-8.6-2.1-10.7A4.6,4.6,0,0,0,160.1,3a4.7,4.7,0,0,0-5,3.4c-.8,2.3-.8,5.3-.8,7.9h0c0,4.3,2.2,8.8,5.3,12.1,3.5-2.8,6-6.6,6-10.7Z" style="fill:none"/><path d="M180.1,10.1c-1.1,0-1.4.3-1.5.4s-.7,3-.7,5.2c0,.4,0,.8,0,1.3a7.6,7.6,0,0,0,3.5,6.7,14.3,14.3,0,0,0,1.8-6.7C183.1,11.5,182.7,10.1,180.1,10.1Z" style="fill:none"/><path d="M147.7,34h20.9a15.3,15.3,0,0,1-9.1-3.7A21.3,21.3,0,0,1,147.7,34Z" style="fill:none"/><path d="M144.3,16.1v-.5c0-1.8,0-4.2-1-5.2a2.4,2.4,0,0,0-1.8-.6c-1.8,0-3.5.7-3.5,5.8a27.8,27.8,0,0,0,1.4,8.6A8.4,8.4,0,0,0,144.3,16.1Z" style="fill:none"/><path d="M318.9,16.9a1.5,1.5,0,0,0-2.1,2.1c.4.4.7,2-.1,4s-2.6,4.8-8.5,4.8c-3.8,0-9-1.4-15.5-3.1-10.7-2.8-23.9-6.3-39.7-6.3-10.5,0-18.7,2.5-26.7,4.9s-14.5,4.4-23.1,4.4-15.4-1.1-19.1-2.6a16.9,16.9,0,0,0,2.1-8.1c0-4.6,0-9.9-6-9.9a4.9,4.9,0,0,0-3.7,1.3c-1.7,1.7-1.6,4.4-1.6,7.3,0,.4,0,.8,0,1.2a10.6,10.6,0,0,0,4.8,9.1,14,14,0,0,1-11,4.9,11.5,11.5,0,0,1-6.7-2.5c4.1-3.6,6.7-8.4,6.7-12.7v-.8c0-4.4,0-9.8-3-12.9A7.5,7.5,0,0,0,160.1,0a7.7,7.7,0,0,0-7.8,5.4c-1,2.8-1,6.2-1,9h0a20.4,20.4,0,0,0,5.9,13.8,19.1,19.1,0,0,1-9.4,2.8,7.8,7.8,0,0,1-6.9-4.1c6-2.8,6.6-8.6,6.6-10.8v-.4c0-2.3,0-5.5-1.9-7.4a5.3,5.3,0,0,0-3.9-1.5c-5.4,0-6.5,4.8-6.5,8.8a28.8,28.8,0,0,0,1.5,9.5,19.4,19.4,0,0,1-3.5.3c-4.4,0-11.6-1.1-20-2.5-12.5-2-28-4.4-42-4.4s-25.1,3-34.7,5.6c-7.1,1.9-13.2,3.6-19,3.6s-11.3,0-13.5-3.1c-1.1-1.6-1.2-4-.1-7.2a1.5,1.5,0,0,0-2.9-.9c-1.4,4.2-1.2,7.5.5,9.9,3.1,4.3,10.2,4.3,15.9,4.3S29.9,29,37.2,27c9.5-2.6,20.2-5.5,33.9-5.5s29.2,2.4,41.6,4.4c8.5,1.3,15.9,2.5,20.4,2.5a21.8,21.8,0,0,0,4.8-.5c2,3.6,5.2,6.1,9.9,6.1h0a21.3,21.3,0,0,0,11.8-3.7,15.3,15.3,0,0,0,9.1,3.7h0a17,17,0,0,0,13-5.6l.7-.8c5.8,2.6,13.9,3.1,20.8,3.1,9,0,16.3-2.2,24-4.5s15.8-4.7,25.8-4.7c15.4,0,28.5,3.4,38.9,6.2,6.8,1.8,12.1,3.2,16.3,3.2,7.7,0,10.5-4.7,11.3-6.7S320.4,18.4,318.9,16.9ZM139.5,24.2a27.8,27.8,0,0,1-1.4-8.6c0-5.1,1.7-5.8,3.5-5.8a2.4,2.4,0,0,1,1.8.6c1,1,1,3.5,1,5.2v.5A8.4,8.4,0,0,1,139.5,24.2Zm20.1,2.3c-3.1-3.2-5.3-7.8-5.3-12.1h0c0-2.7,0-5.7.8-7.9a4.7,4.7,0,0,1,5-3.4,4.6,4.6,0,0,1,3.4,1.2c2.1,2.1,2.1,6.9,2.1,10.7v.8C165.6,19.9,163.1,23.7,159.6,26.5Zm21.7-2.8a7.6,7.6,0,0,1-3.5-6.7c0-.4,0-.9,0-1.3,0-2.2,0-4.4.7-5.2s.4-.4,1.5-.4c2.6,0,3,1.4,3,6.9A14.3,14.3,0,0,1,181.3,23.7Z" style="fill:#5a4024"/></svg>